<svg xmlns="http://www.w3.org/2000/svg" viewBox="0 0 48 48">
  <path fill="#43a047" d="M37,45H11c-1.657,0-3-1.343-3-3V6c0-1.657,1.343-3,3-3h19l10,10v29C40,43.657,38.657,45,37,45z"/>
  <path fill="#c8e6c9" d="M40 13L30 13 30 3z"/>
  <path fill="#2e7d32" d="M30 13L40 23 40 13z"/>
  <path fill="#fff" d="M31 23H17c-.552 0-1 .448-1 1v13c0 .552.448 1 1 1h14c.552 0 1-.448 1-1V24C32 23.448 31.552 23 31 23zM20 36h-3v-3h3V36zM20 32h-3v-3h3V32zM20 28h-3v-3h3V28zM25 36h-4v-3h4V36zM25 32h-4v-3h4V32zM25 28h-4v-3h4V28zM31 36h-5v-3h5V36zM31 32h-5v-3h5V32zM31 28h-5v-3h5V28z"/>
</svg>
